Coordinates
version=1
nRows=4
nColumns=63
inDegrees=yes

Units are S.I. units (second, meters, Newtons, ...)
If the header above contains a line with 'inDegrees', this indicates whether rotational values are in degrees (yes) or radians (no).

endheader
time	pelvis_tilt	pelvis_list	pelvis_rotation	pelvis_tx	pelvis_ty	pelvis_tz	hip_flexion_r	hip_adduction_r	hip_rotation_r	knee_angle_r	knee_angle_r_beta	ankle_angle_r	subtalar_angle_r	mtp_angle_r	hip_flexion_l	hip_adduction_l	hip_rotation_l	knee_angle_l	knee_angle_l_beta	ankle_angle_l	subtalar_angle_l	mtp_angle_l	L5_S1_Flex_Ext	L5_S1_Lat_Bending	L5_S1_axial_rotation	L4_L5_Flex_Ext	L4_L5_Lat_Bending	L4_L5_axial_rotation	L3_L4_Flex_Ext	L3_L4_Lat_Bending	L3_L4_axial_rotation	L2_L3_Flex_Ext	L2_L3_Lat_Bending	L2_L3_axial_rotation	L1_L2_Flex_Ext	L1_L2_Lat_Bending	L1_L2_axial_rotation	L1_T12_Flex_Ext	L1_T12_Lat_Bending	L1_T12_axial_rotation	Abs_r3	Abs_r2	Abs_r1	Abs_t1	Abs_t2	neck_flexion	neck_bending	neck_rotation	arm_flex_r	arm_add_r	arm_rot_r	elbow_flex_r	pro_sup_r	wrist_flex_r	wrist_dev_r	arm_flex_l	arm_add_l	arm_rot_l	elbow_flex_l	pro_sup_l	wrist_flex_l	wrist_dev_l
      0.00000000	     -6.66771852	     -9.93290415	     75.59797419	      0.23692683	      0.34771094	      0.95591520	     12.59785311	     -1.27848047	      2.02459696	     10.50876202	      0.18341250	     24.42937733	     -5.67670916	      0.00000000	     11.89275701	      0.91130065	     -8.64046165	     10.11248937	      0.17649624	     28.87589928	      5.99190854	      0.00000000	      0.18013945	     -0.22323165	      0.86264287	      0.33453697	     -0.29689810	      0.91655805	      0.29595110	     -0.54276544	      0.91655805	      0.20588138	     -0.54276544	      0.75481251	      0.16727749	     -0.45521398	      0.70089733	      0.10293168	     -0.34578583	      0.64698215	      1.28671807	     -2.52524110	      4.79776085	      0.00000000	      0.00000000	     27.48967200	      1.83892731	     -8.34780986	      9.26439863	     -6.78932320	     42.19716271	     37.68606589	     81.55900945	      3.94124610	      7.93133829	     23.49874024	     -5.90946255	     93.24416077	     37.45434127	     36.01806075	    -11.90281538	    -12.20773768
      0.01923077	     -6.14745827	     -9.90445970	     75.79407683	      0.23663114	      0.34733600	      0.95625158	     12.11984627	     -0.59724010	      3.48037433	      9.70915314	      0.16945669	     24.23407396	     -7.90825106	      0.00000000	     11.53474932	      0.47793392	     -7.94841100	      9.92627261	      0.17324614	     28.71937588	      5.34089195	      0.00000000	      0.17390794	     -0.17982642	      0.87217299	      0.32296444	     -0.23916913	      0.92668380	      0.28571336	     -0.43722995	      0.92668380	      0.19875939	     -0.43722995	      0.76315136	      0.16149092	     -0.36670203	      0.70864055	      0.09937100	     -0.27855112	      0.65412974	      1.24220705	     -2.03423238	      4.85076450	      0.00000000	      0.00000000	     27.30085317	      1.89394329	     -9.14102243	     10.02862176	     -6.96734914	     44.63029337	     36.53412211	     77.17232389	      4.25408971	      8.51461899	     23.96965593	     -5.30889733	     93.78621963	     36.88685576	     37.21653257	    -11.33501211	    -10.06338746
      0.03846154	     -5.72803507	     -9.87799699	     75.94702033	      0.23623837	      0.34703585	      0.95622432	     11.67143662	     -0.08696629	      4.56372036	      8.98749082	      0.15686131	     23.98319810	     -9.62466534	      0.00000000	     11.17153319	      0.20971692	     -6.71696510	      9.65049356	      0.16843289	     28.52301108	      4.07281750	      0.00000000	      0.17109657	     -0.13284911	      0.83558520	      0.31774343	     -0.17668932	      0.88780928	      0.28109455	     -0.32300934	      0.88780928	      0.19554627	     -0.32300934	      0.73113705	      0.15888027	     -0.27090591	      0.67891298	      0.09776458	     -0.20578328	      0.62668890	      1.22212567	     -1.50281575	      4.64727422	      0.00000000	      0.00000000	     27.16141318	      2.03222351	     -8.94875629	     10.84610550	     -7.32932037	     47.86480284	     35.76183953	     73.36538991	      4.02582095	      8.05993404	     23.98036084	     -5.00030793	     93.10640875	     36.59798877	     38.82330403	    -10.90686572	     -8.41530199
      0.05769231	     -5.37345112	     -9.88734039	     76.11351184	      0.23581136	      0.34677684	      0.95615453	     11.36639230	      0.28332392	      4.79319405	      8.47766774	      0.14796322	     23.95277245	    -10.15508207	      0.00000000	     10.91311583	     -0.05312732	     -6.03328182	      9.44446676	      0.16483704	     28.43986402	      3.69215324	      0.00000000	      0.16875496	     -0.08828860	      0.82200637	      0.31339484	     -0.11742384	      0.87338176	      0.27724752	     -0.21466490	      0.87338176	      0.19287004	     -0.21466490	      0.71925557	      0.15670586	     -0.18003811	      0.66788017	      0.09642658	     -0.13675904	      0.61650477	      1.20539980	     -0.99873829	      4.57175280	      0.00000000	      0.00000000	     27.08749105	      1.92442659	     -8.91445359	     11.03004508	     -7.54762160	     48.57524745	     35.47865248	     72.69678456	      4.58303196	      7.69845111	     24.01983196	     -4.79163179	     92.74485797	     36.55802853	     39.31281848	    -10.61172765	     -7.62054577
